<svg width="83" height="72" viewBox="0 0 83 72" fill="none" xmlns="http://www.w3.org/2000/svg">
<path d="M29.8828 71.582H52.6367C58.4473 71.582 61.4258 68.2129 61.4258 62.793V46.2891H76.3672C79.7852 46.2891 82.5195 44.1894 82.5195 40.9668C82.5195 38.9648 81.543 37.5488 80.0293 35.9863L46.1914 2.2949C44.7754 0.927699 43.1152 0 41.2598 0C39.4043 0 37.7441 0.927699 36.3281 2.2949L2.5391 35.9863C0.87891 37.6465 0 38.9648 0 40.9668C0 44.1894 2.7344 46.2891 6.1523 46.2891H21.0937V62.793C21.0937 68.2129 24.0723 71.582 29.8828 71.582Z" fill="white"/>
</svg>
