<svg width="83" height="72" viewBox="0 0 83 72" fill="none" xmlns="http://www.w3.org/2000/svg">
<path d="M29.8828 71.582H52.6367C58.4473 71.582 61.4258 68.2129 61.4258 62.793V46.2891H76.3672C79.7852 46.2891 82.5195 44.1894 82.5195 40.9668C82.5195 38.9648 81.543 37.5488 80.0293 35.9863L46.1914 2.2949C44.7754 0.927699 43.1152 0 41.2598 0C39.4043 0 37.7441 0.927699 36.3281 2.2949L2.5391 35.9863C0.87891 37.6465 0 38.9648 0 40.9668C0 44.1894 2.7344 46.2891 6.1523 46.2891H21.0937V62.793C21.0937 68.2129 24.0723 71.582 29.8828 71.582ZM30.6152 64.7949C29.3457 64.7949 28.418 63.916 28.418 62.5976V41.0156C28.418 40.0879 28.0273 39.6973 27.0508 39.6973H9.7168C9.5215 39.6973 9.4238 39.5996 9.4238 39.4531C9.4238 39.3555 9.4727 39.2578 9.5703 39.1113L40.7715 8.2031C40.918 8.0566 41.1133 8.0078 41.2598 8.0078C41.4551 8.0078 41.6016 8.0566 41.748 8.2031L72.9492 39.1113C73.0469 39.2578 73.1445 39.3555 73.1445 39.4531C73.1445 39.5996 72.998 39.6973 72.8516 39.6973H55.4687C54.4922 39.6973 54.1016 40.0879 54.1016 41.0156V62.5976C54.1016 63.8672 53.1738 64.7949 51.9043 64.7949H30.6152Z" fill="white"/>
</svg>
